<mxfile host="Electron" modified="2024-04-02T01:22:47.598Z" agent="Mozilla/5.0 (X11; Linux x86_64) AppleWebKit/537.36 (KHTML, like Gecko) draw.io/24.1.0 Chrome/120.0.6099.109 Electron/28.1.0 Safari/537.36" etag="m-qYR1bd7_DcEwxS4jy_" version="24.1.0" type="device">
  <diagram name="Page-1" id="K1Watzfb4iONuvxmO4uo">
    <mxGraphModel dx="875" dy="525" grid="1" gridSize="10" guides="1" tooltips="1" connect="1" arrows="1" fold="1" page="1" pageScale="1" pageWidth="850" pageHeight="1100" math="0" shadow="0">
      <root>
        <mxCell id="0" />
        <mxCell id="1" parent="0" />
        <mxCell id="sKxlCw8VQtBu18GirvFr-1" value="game : Hangman" style="shape=umlLifeline;perimeter=lifelinePerimeter;whiteSpace=wrap;html=1;container=1;dropTarget=0;collapsible=0;recursiveResize=0;outlineConnect=0;portConstraint=eastwest;newEdgeStyle={&quot;curved&quot;:0,&quot;rounded&quot;:0};" vertex="1" parent="1">
          <mxGeometry x="160" y="20" width="100" height="890" as="geometry" />
        </mxCell>
        <mxCell id="sKxlCw8VQtBu18GirvFr-2" value="" style="html=1;points=[[0,0,0,0,5],[0,1,0,0,-5],[1,0,0,0,5],[1,1,0,0,-5]];perimeter=orthogonalPerimeter;outlineConnect=0;targetShapes=umlLifeline;portConstraint=eastwest;newEdgeStyle={&quot;curved&quot;:0,&quot;rounded&quot;:0};" vertex="1" parent="sKxlCw8VQtBu18GirvFr-1">
          <mxGeometry x="45" y="80" width="10" height="770" as="geometry" />
        </mxCell>
        <mxCell id="sKxlCw8VQtBu18GirvFr-44" value="" style="html=1;points=[[0,0,0,0,5],[0,1,0,0,-5],[1,0,0,0,5],[1,1,0,0,-5]];perimeter=orthogonalPerimeter;outlineConnect=0;targetShapes=umlLifeline;portConstraint=eastwest;newEdgeStyle={&quot;curved&quot;:0,&quot;rounded&quot;:0};" vertex="1" parent="sKxlCw8VQtBu18GirvFr-1">
          <mxGeometry x="50" y="670" width="10" height="40" as="geometry" />
        </mxCell>
        <mxCell id="sKxlCw8VQtBu18GirvFr-45" value="calculate_score()" style="html=1;align=left;spacingLeft=2;endArrow=block;rounded=0;edgeStyle=orthogonalEdgeStyle;curved=0;rounded=0;" edge="1" target="sKxlCw8VQtBu18GirvFr-44" parent="sKxlCw8VQtBu18GirvFr-1">
          <mxGeometry relative="1" as="geometry">
            <mxPoint x="55" y="650" as="sourcePoint" />
            <Array as="points">
              <mxPoint x="85" y="680" />
            </Array>
          </mxGeometry>
        </mxCell>
        <mxCell id="sKxlCw8VQtBu18GirvFr-3" value="play()" style="html=1;verticalAlign=bottom;endArrow=block;curved=0;rounded=0;" edge="1" parent="1" target="sKxlCw8VQtBu18GirvFr-2">
          <mxGeometry x="-0.5294" width="80" relative="1" as="geometry">
            <mxPoint x="120" y="100" as="sourcePoint" />
            <mxPoint x="200" y="100" as="targetPoint" />
            <mxPoint as="offset" />
          </mxGeometry>
        </mxCell>
        <mxCell id="sKxlCw8VQtBu18GirvFr-4" value="dict : Dictionary" style="shape=umlLifeline;perimeter=lifelinePerimeter;whiteSpace=wrap;html=1;container=1;dropTarget=0;collapsible=0;recursiveResize=0;outlineConnect=0;portConstraint=eastwest;newEdgeStyle={&quot;curved&quot;:0,&quot;rounded&quot;:0};" vertex="1" parent="1">
          <mxGeometry x="325" y="20" width="100" height="890" as="geometry" />
        </mxCell>
        <mxCell id="sKxlCw8VQtBu18GirvFr-5" value="" style="html=1;points=[[0,0,0,0,5],[0,1,0,0,-5],[1,0,0,0,5],[1,1,0,0,-5]];perimeter=orthogonalPerimeter;outlineConnect=0;targetShapes=umlLifeline;portConstraint=eastwest;newEdgeStyle={&quot;curved&quot;:0,&quot;rounded&quot;:0};" vertex="1" parent="sKxlCw8VQtBu18GirvFr-4">
          <mxGeometry x="45" y="100" width="10" height="40" as="geometry" />
        </mxCell>
        <mxCell id="sKxlCw8VQtBu18GirvFr-6" value="select_word()" style="html=1;verticalAlign=bottom;endArrow=block;curved=0;rounded=0;entryX=0;entryY=0;entryDx=0;entryDy=5;" edge="1" target="sKxlCw8VQtBu18GirvFr-5" parent="1" source="sKxlCw8VQtBu18GirvFr-2">
          <mxGeometry relative="1" as="geometry">
            <mxPoint x="300" y="125" as="sourcePoint" />
          </mxGeometry>
        </mxCell>
        <mxCell id="sKxlCw8VQtBu18GirvFr-7" value="hang_word" style="html=1;verticalAlign=bottom;endArrow=open;dashed=1;endSize=8;curved=0;rounded=0;exitX=0;exitY=1;exitDx=0;exitDy=-5;" edge="1" source="sKxlCw8VQtBu18GirvFr-5" parent="1" target="sKxlCw8VQtBu18GirvFr-2">
          <mxGeometry x="-0.0041" relative="1" as="geometry">
            <mxPoint x="300" y="195" as="targetPoint" />
            <mxPoint as="offset" />
          </mxGeometry>
        </mxCell>
        <mxCell id="sKxlCw8VQtBu18GirvFr-8" value="hang_word : Word" style="shape=umlLifeline;perimeter=lifelinePerimeter;whiteSpace=wrap;html=1;container=1;dropTarget=0;collapsible=0;recursiveResize=0;outlineConnect=0;portConstraint=eastwest;newEdgeStyle={&quot;curved&quot;:0,&quot;rounded&quot;:0};" vertex="1" parent="1">
          <mxGeometry x="450" y="20" width="110" height="890" as="geometry" />
        </mxCell>
        <mxCell id="sKxlCw8VQtBu18GirvFr-17" value="" style="html=1;points=[[0,0,0,0,5],[0,1,0,0,-5],[1,0,0,0,5],[1,1,0,0,-5]];perimeter=orthogonalPerimeter;outlineConnect=0;targetShapes=umlLifeline;portConstraint=eastwest;newEdgeStyle={&quot;curved&quot;:0,&quot;rounded&quot;:0};" vertex="1" parent="sKxlCw8VQtBu18GirvFr-8">
          <mxGeometry x="50" y="170" width="10" height="20" as="geometry" />
        </mxCell>
        <mxCell id="sKxlCw8VQtBu18GirvFr-24" value="" style="html=1;points=[[0,0,0,0,5],[0,1,0,0,-5],[1,0,0,0,5],[1,1,0,0,-5]];perimeter=orthogonalPerimeter;outlineConnect=0;targetShapes=umlLifeline;portConstraint=eastwest;newEdgeStyle={&quot;curved&quot;:0,&quot;rounded&quot;:0};" vertex="1" parent="sKxlCw8VQtBu18GirvFr-8">
          <mxGeometry x="50" y="304" width="10" height="30" as="geometry" />
        </mxCell>
        <mxCell id="sKxlCw8VQtBu18GirvFr-32" value="" style="html=1;points=[[0,0,0,0,5],[0,1,0,0,-5],[1,0,0,0,5],[1,1,0,0,-5]];perimeter=orthogonalPerimeter;outlineConnect=0;targetShapes=umlLifeline;portConstraint=eastwest;newEdgeStyle={&quot;curved&quot;:0,&quot;rounded&quot;:0};" vertex="1" parent="sKxlCw8VQtBu18GirvFr-8">
          <mxGeometry x="50" y="394" width="10" height="30" as="geometry" />
        </mxCell>
        <mxCell id="sKxlCw8VQtBu18GirvFr-18" value="print()" style="html=1;verticalAlign=bottom;endArrow=block;curved=0;rounded=0;entryX=0;entryY=0;entryDx=0;entryDy=5;" edge="1" target="sKxlCw8VQtBu18GirvFr-17" parent="1" source="sKxlCw8VQtBu18GirvFr-2">
          <mxGeometry x="-0.8413" y="5" relative="1" as="geometry">
            <mxPoint x="420" y="195" as="sourcePoint" />
            <mxPoint as="offset" />
          </mxGeometry>
        </mxCell>
        <mxCell id="sKxlCw8VQtBu18GirvFr-20" value="player :Player" style="shape=umlLifeline;perimeter=lifelinePerimeter;whiteSpace=wrap;html=1;container=1;dropTarget=0;collapsible=0;recursiveResize=0;outlineConnect=0;portConstraint=eastwest;newEdgeStyle={&quot;curved&quot;:0,&quot;rounded&quot;:0};" vertex="1" parent="1">
          <mxGeometry x="590" y="20" width="100" height="890" as="geometry" />
        </mxCell>
        <mxCell id="sKxlCw8VQtBu18GirvFr-21" value="" style="html=1;points=[[0,0,0,0,5],[0,1,0,0,-5],[1,0,0,0,5],[1,1,0,0,-5]];perimeter=orthogonalPerimeter;outlineConnect=0;targetShapes=umlLifeline;portConstraint=eastwest;newEdgeStyle={&quot;curved&quot;:0,&quot;rounded&quot;:0};" vertex="1" parent="sKxlCw8VQtBu18GirvFr-20">
          <mxGeometry x="45" y="259" width="10" height="25" as="geometry" />
        </mxCell>
        <mxCell id="sKxlCw8VQtBu18GirvFr-22" value="guess = askLetter()" style="html=1;verticalAlign=bottom;endArrow=block;curved=0;rounded=0;entryX=0;entryY=0;entryDx=0;entryDy=5;" edge="1" target="sKxlCw8VQtBu18GirvFr-21" parent="1">
          <mxGeometry x="-0.7381" relative="1" as="geometry">
            <mxPoint x="215" y="284" as="sourcePoint" />
            <mxPoint as="offset" />
          </mxGeometry>
        </mxCell>
        <mxCell id="sKxlCw8VQtBu18GirvFr-25" value="result = hasLetter( guess )" style="html=1;verticalAlign=bottom;endArrow=block;curved=0;rounded=0;entryX=0;entryY=0;entryDx=0;entryDy=5;" edge="1" target="sKxlCw8VQtBu18GirvFr-24" parent="1">
          <mxGeometry x="-0.4737" relative="1" as="geometry">
            <mxPoint x="215" y="329" as="sourcePoint" />
            <mxPoint as="offset" />
          </mxGeometry>
        </mxCell>
        <mxCell id="sKxlCw8VQtBu18GirvFr-27" value="alt" style="shape=umlFrame;whiteSpace=wrap;html=1;pointerEvents=0;width=40;height=20;" vertex="1" parent="1">
          <mxGeometry x="160" y="374" width="540" height="230" as="geometry" />
        </mxCell>
        <mxCell id="sKxlCw8VQtBu18GirvFr-33" value="print()" style="html=1;verticalAlign=bottom;endArrow=block;curved=0;rounded=0;entryX=0;entryY=0;entryDx=0;entryDy=5;" edge="1" target="sKxlCw8VQtBu18GirvFr-32" parent="1">
          <mxGeometry relative="1" as="geometry">
            <mxPoint x="215" y="419" as="sourcePoint" />
          </mxGeometry>
        </mxCell>
        <mxCell id="sKxlCw8VQtBu18GirvFr-36" value="" style="endArrow=none;dashed=1;html=1;rounded=0;entryX=1.004;entryY=0.476;entryDx=0;entryDy=0;entryPerimeter=0;" edge="1" parent="1" target="sKxlCw8VQtBu18GirvFr-27">
          <mxGeometry width="50" height="50" relative="1" as="geometry">
            <mxPoint x="160" y="484" as="sourcePoint" />
            <mxPoint x="470" y="474" as="targetPoint" />
          </mxGeometry>
        </mxCell>
        <mxCell id="sKxlCw8VQtBu18GirvFr-37" value="[ else ]" style="text;html=1;align=center;verticalAlign=middle;whiteSpace=wrap;rounded=0;" vertex="1" parent="1">
          <mxGeometry x="220" y="484" width="60" height="30" as="geometry" />
        </mxCell>
        <mxCell id="sKxlCw8VQtBu18GirvFr-38" value="[ result == true ]" style="text;html=1;align=center;verticalAlign=middle;whiteSpace=wrap;rounded=0;" vertex="1" parent="1">
          <mxGeometry x="220" y="374" width="100" height="30" as="geometry" />
        </mxCell>
        <mxCell id="sKxlCw8VQtBu18GirvFr-39" value="" style="html=1;points=[[0,0,0,0,5],[0,1,0,0,-5],[1,0,0,0,5],[1,1,0,0,-5]];perimeter=orthogonalPerimeter;outlineConnect=0;targetShapes=umlLifeline;portConstraint=eastwest;newEdgeStyle={&quot;curved&quot;:0,&quot;rounded&quot;:0};" vertex="1" parent="1">
          <mxGeometry x="210" y="534" width="10" height="40" as="geometry" />
        </mxCell>
        <mxCell id="sKxlCw8VQtBu18GirvFr-40" value="increase_errors()" style="html=1;align=left;spacingLeft=2;endArrow=block;rounded=0;edgeStyle=orthogonalEdgeStyle;curved=0;rounded=0;" edge="1" target="sKxlCw8VQtBu18GirvFr-39" parent="1">
          <mxGeometry relative="1" as="geometry">
            <mxPoint x="215" y="514" as="sourcePoint" />
            <Array as="points">
              <mxPoint x="245" y="544" />
            </Array>
          </mxGeometry>
        </mxCell>
        <mxCell id="sKxlCw8VQtBu18GirvFr-41" value="loop" style="shape=umlFrame;whiteSpace=wrap;html=1;pointerEvents=0;width=60;height=20;" vertex="1" parent="1">
          <mxGeometry x="130" y="220" width="630" height="430" as="geometry" />
        </mxCell>
        <mxCell id="sKxlCw8VQtBu18GirvFr-43" value="[ game.errors() &amp;lt;= 5 &amp;amp;&amp;amp; hang_word.missing() != 0 ]" style="text;html=1;align=center;verticalAlign=middle;whiteSpace=wrap;rounded=0;fillColor=default;" vertex="1" parent="1">
          <mxGeometry x="220" y="230" width="280" height="20" as="geometry" />
        </mxCell>
        <mxCell id="sKxlCw8VQtBu18GirvFr-49" value="alt" style="shape=umlFrame;whiteSpace=wrap;html=1;pointerEvents=0;width=40;height=20;" vertex="1" parent="1">
          <mxGeometry x="120" y="740" width="280" height="140" as="geometry" />
        </mxCell>
        <mxCell id="sKxlCw8VQtBu18GirvFr-50" value="" style="endArrow=none;dashed=1;html=1;rounded=0;entryX=0.996;entryY=0.482;entryDx=0;entryDy=0;entryPerimeter=0;exitX=-0.002;exitY=0.478;exitDx=0;exitDy=0;exitPerimeter=0;" edge="1" parent="1" target="sKxlCw8VQtBu18GirvFr-49">
          <mxGeometry width="50" height="50" relative="1" as="geometry">
            <mxPoint x="120.00000000000003" y="810.46" as="sourcePoint" />
            <mxPoint x="703.4799999999999" y="810" as="targetPoint" />
          </mxGeometry>
        </mxCell>
        <mxCell id="sKxlCw8VQtBu18GirvFr-51" value="[ else ]" style="text;html=1;align=center;verticalAlign=middle;whiteSpace=wrap;rounded=0;" vertex="1" parent="1">
          <mxGeometry x="210" y="810" width="60" height="30" as="geometry" />
        </mxCell>
        <mxCell id="sKxlCw8VQtBu18GirvFr-52" value="[ hang_word.missing() == 0 ]" style="text;html=1;align=center;verticalAlign=middle;whiteSpace=wrap;rounded=0;" vertex="1" parent="1">
          <mxGeometry x="210" y="740" width="170" height="30" as="geometry" />
        </mxCell>
        <mxCell id="sKxlCw8VQtBu18GirvFr-58" value="true" style="html=1;verticalAlign=bottom;endArrow=open;dashed=1;endSize=8;curved=0;rounded=0;" edge="1" parent="1">
          <mxGeometry relative="1" as="geometry">
            <mxPoint x="90" y="790" as="targetPoint" />
            <mxPoint x="205" y="790" as="sourcePoint" />
          </mxGeometry>
        </mxCell>
        <mxCell id="sKxlCw8VQtBu18GirvFr-59" value="false" style="html=1;verticalAlign=bottom;endArrow=open;dashed=1;endSize=8;curved=0;rounded=0;" edge="1" parent="1">
          <mxGeometry relative="1" as="geometry">
            <mxPoint x="90" y="854.66" as="targetPoint" />
            <mxPoint x="205" y="854.66" as="sourcePoint" />
          </mxGeometry>
        </mxCell>
      </root>
    </mxGraphModel>
  </diagram>
</mxfile>
